<?xml version="1.0" encoding="utf-8"?>
<!-- Generator: Adobe Illustrator 20.1.0, SVG Export Plug-In . SVG Version: 6.00 Build 0)  -->
<svg version="1.1" id="Layer_1" xmlns="http://www.w3.org/2000/svg" xmlns:xlink="http://www.w3.org/1999/xlink" x="0px" y="0px"
	 viewBox="0 0 700 700" style="enable-background:new 0 0 700 700;" xml:space="preserve">
<style type="text/css">
	.st0{fill:#3DB54A;}
	.st1{fill:url(#SVGID_1_);}
</style>
<path class="st0" d="M700,78.5c0-43.2-35.1-78.3-78.3-78.3H78.3C35.1,0.2,0,35.2,0,78.5v443.7c0,0.7,0.1,1.4,0.1,2
	c0.6,10.5,3.8,21.2,9.9,31.5l60.3,101.8c15.6,26.2,46.9,42.8,81.2,42.8h396.9c34.3,0,65.7-16.5,81.2-42.8L690,555.6
	c6-10.2,9.2-20.8,9.9-31.2c0.1-0.7,0.2-1.4,0.2-2.1V78.5z"/>
<linearGradient id="SVGID_1_" gradientUnits="userSpaceOnUse" x1="350.025" y1="700.2166" x2="350.025" y2="0.1667">
	<stop  offset="0" style="stop-color:#FFFFFF;stop-opacity:0"/>
	<stop  offset="1" style="stop-color:#FFFFFF;stop-opacity:0.5"/>
</linearGradient>
<path class="st1" d="M700,78.5c0-43.2-35.1-78.3-78.3-78.3H78.3C35.1,0.2,0,35.2,0,78.5v443.7c0,0.7,0.1,1.4,0.1,2
	c0.6,10.5,3.8,21.2,9.9,31.5l60.3,101.8c15.6,26.2,46.9,42.8,81.2,42.8h396.9c34.3,0,65.7-16.5,81.2-42.8L690,555.6
	c6-10.2,9.2-20.8,9.9-31.2c0.1-0.7,0.2-1.4,0.2-2.1V78.5z"/>
</svg>
