<?xml version="1.0" encoding="utf-8"?>
<!-- Generator: Adobe Illustrator 20.0.0, SVG Export Plug-In . SVG Version: 6.00 Build 0)  -->
<svg version="1.1" id="Layer_1" xmlns="http://www.w3.org/2000/svg" xmlns:xlink="http://www.w3.org/1999/xlink" x="0px" y="0px"
	 viewBox="0 0 759 246" style="enable-background:new 0 0 759 246;" xml:space="preserve">
<style type="text/css">
	.st0{fill:#C82026;}
</style>
<path class="st0" d="M250,5.3h-0.3c-15.2,0-26.9,4.6-34.9,13.9c-6.6,7.6-10.5,17.2-11.7,28.6h47V5.3z M257.2,47.8h104.1
	c2.2,0,3.3-1.1,3.3-3.3V8.6c0-2.2-1.4-3.3-4.2-3.3H257.2V47.8z M250,55h-47.3l0,0.3v134.5H250V55z M257.2,143.1h96.3
	c2.2,0,3.3-1.1,3.3-3.3v-37.5c0-2.2-1.1-3.3-3.3-3.3h-96.3V143.1z M257.2,239.4h104.1c2.2,0,3.3-1.1,3.3-3.3v-35.9
	c0-2.2-1.1-3.2-3.2-3.3H257.2V239.4z M202.6,205.1c0,4.1,0.9,8.2,2.8,12.2c1.8,4,4.3,7.7,7.3,10.9c3,3.3,6.5,5.9,10.4,8
	c3.9,2.1,7.8,3.1,11.8,3.1h15V197h-47.3V205.1z"/>
<path class="st0" d="M435.6,9.1c-2.3,0.8-4.6,1.7-6.9,2.8c-9.4,4.4-17.4,10.4-24.2,18.3c-2.4,2.8-4.7,5.9-7,9.3
	c-1.6,2.4-3,5.2-4.2,8.3h42.2V9.1z M460.7,47.8L460.7,47.8l84.6,0c2.2,0,3.3-1.1,3.3-3.3V8.6c0-2.2-1.1-3.3-3.3-3.3h-86.5
	c-5.5,0-10.8,0.6-16,1.7v40.7H460.7z M442.8,237.2c0.5,0.1,1.1,0.3,1.6,0.4c5,1.2,10.8,1.8,17.3,1.8h83.6c2.2,0,3.3-1.1,3.3-3.3
	v-35.9c0-2.2-1.1-3.2-3.2-3.3H442.8V237.2z M394.5,197c3.9,8.3,8.8,15.6,14.7,21.7c6.5,6.9,13.9,11.8,22.2,14.9
	c1.3,0.5,2.7,1.1,4.2,1.6V197H394.5z M388.3,169.5c0,5.9,0.5,10.8,1.6,14.9c0.5,2,1.1,3.8,1.6,5.4h44.1V55h-44.4c-2,7.3-3,15-3,23.2
	V169.5z"/>
<path class="st0" d="M619.6,239.4h-44.1c-2.2,0-3.3-1.1-3.3-3.3V197h47.3V239.4z M750.7,197c-2,7.8-5.2,14.6-9.5,20.6
	c-4.9,6.7-11.4,12.1-19.4,16c-8.1,3.9-18.3,5.9-30.7,5.9h-64.3V197H750.7z M619.6,189.8h-47.3V55h47.3V189.8z M747.6,55
	c0.2,2.2,0.3,4.5,0.3,6.8c0,11.8-1,21.1-2.9,27.9c-2,6.9-4.2,12.1-6.7,15.7c-2.5,3.6-4.7,6-6.7,7.2c-2,1.2-2.9,2.1-2.9,2.8
	c0,1.1,1.7,3.4,5.1,6.9c3.4,3.5,7.1,7.5,11.3,12.1c1.5,2,2.9,4.2,4.1,6.9c1.2,2.6,2.2,5.3,3.1,8c0.9,2.7,1.5,5.4,1.8,8.2
	c0.3,2.7,0.5,5.1,0.5,7c0,9-0.7,17.5-2.2,25.5h-47.4c0.7-1,1.3-2,1.9-3.1c1.5-2.9,2.6-6,3.1-9.3c0.5-3.3,0.8-6.1,0.8-8.5
	c0-5-0.6-9.2-1.8-12.6c-1.2-3.4-2.7-6-4.6-8c-1.8-2-3.9-3.3-6.2-4.1c-2.3-0.8-4.4-1.1-6.4-1.1h-65V99h52.6c8.7,0,14.9-1.9,18.6-5.7
	c3.7-3.8,5.5-10.7,5.5-20.7c0-8-1.7-13.8-5.2-17.6H747.6z M626.8,5.3H693c7.8,0,15.1,1.3,21.7,3.9c6.6,2.6,12.4,6.4,17.3,11.3
	c4.9,4.9,8.8,10.8,11.6,17.8c1.2,3,2.2,6.2,2.9,9.5h-67.1l-0.1,0h-52.6V5.3z M572.3,8.6c0-2.2,1.1-3.3,3.3-3.3h44.1v42.4h-47.3V8.6z
	"/>
<path class="st0" d="M5,197v39.2c0,2.2,1.1,3.3,3.3,3.3H49c2.2,0,3.3-1.1,3.3-3.3V197H5z M59.5,158.1h52.9c12.2,0,22.5-1.8,31-5.4
	c8.5-3.6,15.3-8.8,20.6-15.5c5.2-6.7,9-14.8,11.4-24.2c2.4-9.4,3.6-19.8,3.6-31.3c0-9.6-0.9-18.5-2.7-26.8h-46.9
	c1.2,2,2.1,4.1,2.8,6.5c1.1,3.7,1.8,7.5,2.1,11.3c0.3,3.8,0.5,6.8,0.5,9c0,2.2-0.2,5.2-0.5,9c-0.3,3.8-1,7.6-2.1,11.3
	c-1.1,3.7-2.8,6.9-5.1,9.6c-2.3,2.7-5.4,4.1-9.3,4.1H59.5V158.1z M5,55v134.8h47.3v-28.4l0-0.1v-48.7l0-0.1V55H5z M59.5,47.8h58.4
	l0.1,0h56.5c-2.4-8-5.9-14.9-10.5-20.9c-5.2-6.7-12.1-12-20.6-15.8c-8.5-3.8-18.8-5.7-31-5.7H59.5V47.8z M5,12.2v35.6h47.3V5.3H8.2
	C6,5.3,5,6.4,5,8.6V12.2z"/>
</svg>
