<?xml version="1.0" encoding="utf-8"?>
<!-- Generator: Adobe Illustrator 20.1.0, SVG Export Plug-In . SVG Version: 6.00 Build 0)  -->
<svg version="1.1" id="Layer_1" xmlns="http://www.w3.org/2000/svg" xmlns:xlink="http://www.w3.org/1999/xlink" x="0px" y="0px"
	 viewBox="0 0 700 700" style="enable-background:new 0 0 700 700;" xml:space="preserve">
<style type="text/css">
	.st0{fill:#818181;}
	.st1{fill:url(#SVGID_1_);}
</style>
<path class="st0" d="M620,700H80c-44.2,0-80-35.8-80-80V80C0,35.8,35.8,0,80,0h540c44.2,0,80,35.8,80,80v540
	C700,664.2,664.2,700,620,700z"/>
<path class="st0" d="M620,700H80c-44.2,0-80-35.8-80-80V80C0,35.8,35.8,0,80,0h540c44.2,0,80,35.8,80,80v540
	C700,664.2,664.2,700,620,700z"/>
<linearGradient id="SVGID_1_" gradientUnits="userSpaceOnUse" x1="350.025" y1="0" x2="350.025" y2="700.0499">
	<stop  offset="0" style="stop-color:#FFFFFF;stop-opacity:0.7"/>
	<stop  offset="1" style="stop-color:#000000;stop-opacity:0"/>
</linearGradient>
<path class="st1" d="M620,700H80c-44.2,0-80-35.8-80-80V80C0,35.8,35.8,0,80,0h540c44.2,0,80,35.8,80,80v540
	C700,664.2,664.2,700,620,700z"/>
</svg>
