<?xml version="1.0" encoding="utf-8"?>
<!-- Generator: Adobe Illustrator 20.1.0, SVG Export Plug-In . SVG Version: 6.00 Build 0)  -->
<svg version="1.1" id="Layer_1" xmlns="http://www.w3.org/2000/svg" xmlns:xlink="http://www.w3.org/1999/xlink" x="0px" y="0px"
	 viewBox="0 0 700 700" style="enable-background:new 0 0 700 700;" xml:space="preserve">
<style type="text/css">
	.st0{fill:#CA2127;}
	.st1{fill:url(#SVGID_1_);}
</style>
<path class="st0" d="M0,621.9c0,43.2,35.1,78.3,78.3,78.3h543.4c43.2,0,78.3-35.1,78.3-78.3V178.2c0-0.7-0.1-1.4-0.1-2
	c-0.6-10.5-3.8-21.2-9.9-31.5L629.7,42.9c-15.6-26.2-46.9-42.8-81.2-42.8H151.6c-34.3,0-65.7,16.5-81.2,42.8L10,144.7
	c-6,10.2-9.2,20.8-9.9,31.2c-0.1,0.7-0.2,1.4-0.2,2.1V621.9z"/>
<linearGradient id="SVGID_1_" gradientUnits="userSpaceOnUse" x1="350.025" y1="0.1667" x2="350.025" y2="700.2166" gradientTransform="matrix(-1 0 0 -1 700.0499 700.3832)">
	<stop  offset="0" style="stop-color:#FFFFFF;stop-opacity:0"/>
	<stop  offset="1" style="stop-color:#FFFFFF;stop-opacity:0.5"/>
</linearGradient>
<path class="st1" d="M0,621.9c0,43.2,35.1,78.3,78.3,78.3h543.4c43.2,0,78.3-35.1,78.3-78.3V178.2c0-0.7-0.1-1.4-0.1-2
	c-0.6-10.5-3.8-21.2-9.9-31.5L629.7,42.9c-15.6-26.2-46.9-42.8-81.2-42.8H151.6c-34.3,0-65.7,16.5-81.2,42.8L10,144.7
	c-6,10.2-9.2,20.8-9.9,31.2c-0.1,0.7-0.2,1.4-0.2,2.1V621.9z"/>
</svg>
